<?xml version="1.0" encoding="UTF-8"?>
<svg id="Layer_2" data-name="Layer 2" xmlns="http://www.w3.org/2000/svg" viewBox="0 0 444.94 318.83">
  <defs>
    <style>
      .cls-1 {
        fill: #fefefe;
      }

      .cls-1, .cls-2, .cls-3, .cls-4, .cls-5, .cls-6, .cls-7, .cls-8, .cls-9, .cls-10, .cls-11, .cls-12, .cls-13 {
        stroke-width: 0px;
      }

      .cls-2 {
        fill: #f3f3f3;
      }

      .cls-3 {
        fill: #f7f7f7;
      }

      .cls-4 {
        fill: #f5f5f5;
      }

      .cls-5 {
        fill: #f0f0f0;
      }

      .cls-6 {
        fill: #f6f6f6;
      }

      .cls-7 {
        fill: #f8f8f8;
      }

      .cls-8 {
        fill: #fafafa;
      }

      .cls-9 {
        fill: #f4f4f4;
      }

      .cls-10 {
        fill: #f1f1f1;
      }

      .cls-11 {
        fill: #f9f9f9;
      }

      .cls-12 {
        fill: #fdfdfd;
      }

      .cls-13 {
        fill: #eaeaea;
      }
    </style>
  </defs>
  <g id="Layer_1-2" data-name="Layer 1">
    <g>
      <g>
        <path class="cls-1" d="m146.14,9.27c.22.61.28,1.35.67,1.81,6.66,7.93,8.18,17.06,7.57,27.19-.64,10.56-.17,21.19-.09,31.78.01,1.53-.84,3.33.87,4.58,2.93.57,5.75,1.34,7.23,4.33-.86,1.7-2.67,2.06-4.12,2.93-1.12-.63-2.01-1.71-3.38-1.69-.29-.54.5-.43-.13-.25-.39.11-.27.43.22.42,1.36,1.56-.1,2.69-.54,3.97-.07,23.24-.16,46.49-.21,69.73-.03,15.28,0,30.55-.02,45.83,0,1.99-.1,3.97,1.15,5.7,1.24.71,2.05,2.05,3.91,1.77,4.99-.76,5.14-.51,4.78,4.46-.08,1.14-.19,2.27-.68,3.32-4.17,6.02-9.82,10.95-13.17,17.59-5.49,7.06-16.02,5.14-20.87-3.79-1.04-38.75-.18-77.51-.46-116.27,0-1,0-2,0-2.99q0-8.25-7.65-6.95c-5.74,2.72-11.49,5.43-17.23,8.15-1.15.83-2.73.91-3.68,2.1h.03c-1.24.13-2.45.37-3.4,1.28-3.63.94-4.97-1.62-6.33-4.14-1.79-3.32,1.67-4.11,2.88-5.99.85-.87,1.84-1.55,2.9-2.14,9.81-6.12,20.87-9.8,30.8-15.71,2.37-2.1,1.63-4.93,1.64-7.48.08-18.71.02-37.43.06-56.14,0-2.27-.46-4.68,1.19-6.68,3.05.09,1.6,2.46,1.6,3.68.1,19.18.08,38.36.07,57.3.08.91,1.11.18.48.37-.13.04-.44-.45-.44-.76,0-18.6,0-37.19-.02-55.79,0-2.1.58-4.38-1.34-6.05-.29-.43-.49-.91-.6-1.41-.03-.8.08-1.55,1.06-1.74.43-.08.9-.11,1.22.31-.2-.72-.84-.3-1.27-.49-.44-.03-.86-.06-1.29-.08-3.19.27-6.51-1.46-9.55.72-1.41,1.46-3.03,2.56-5.08,2.86-2.3.24-4.15-.92-6.04-1.96-5.1-.24-10.09-2.02-15.32-.21-3.06,1.06-6.45.21-9.69.03-13.5,2.37-26.05,7.35-38.11,13.75-10.89,5.78-10.92,5.72-19.4-2.62-1.65-1.05-3.74-1.72-3.77-4.21-1.67-1.27-2.83-3.04-4.32-4.49-2.28-2.38-4.59-4.75-6.84-7.16-1.31-1.41-3.42-2.76-2.43-4.95,1.03-2.29,3.37-1.42,5.29-1.15,1.24,1.7,3.05.98,4.61.98,34.45.02,68.9,0,103.35.08,3.2,0,5.85-.62,8.01-3,3.33.85,6.55,1.96,10.14,1.89,1.99-.04,1.59,3.44,3.67,4.12,1.25.73,1.8,1.89,2.03,3.26Z"/>
        <path class="cls-12" d="m94.22,104.68c.67,2.4-5.32,1.66-2.39,5.48,1.5,1.96,3.07,3.13,5.28,3.75.36.1.5.24.43.43-.08.21-.17.32-.27.32-3.32,2.09-6.65,4.17-9.97,6.26-2.62,3.19-6.29,4.62-10.01,5.96-17.64,10.24-34.29,21.69-46.96,38.07-.73.98-1.24,2.14-2.33,2.82-6.21,6.81-11.01,14.89-13.16,23.46-1.63,6.5.4,14.09,1.51,21.09,3.11,19.55,8.62,38.37,20.06,54.84,14.84,21.38,34,36.92,60.2,42.06,16.54,3.25,31.46-.58,44.45-11.46,2.34-.11,3.46.99,3.33,3.34-8.06,10.12-19.16,14.53-31.42,16.93-6.94,1.36-13.78.82-20.65-.27-.4-.74.05-2.35-.38-2.25-3.31.76-6.46-1.88-9.74-.36-10.25-1.66-19.11-6.54-27.55-12.21-26.77-17.98-44.13-42.58-51.65-74.02-.38-1.6-.49-3.26-.73-4.89-.08-.14-.16-.29-.25-.43-.95-1.67,2.87-2.59.3-5.35-1.37-1.47.31-6.29.01-9.58-.32-3.48-.28-6.96-.31-10.44-.03-3.32.1-6.64-.05-9.96-.09-1.88.59-4.1-1.65-5.36.77-19.41,5.34-38.02,12-56.17,8.91-24.3,22.77-45.67,39.06-65.58,4.04-6.34,8.61-12.18,15.22-16.08,2.22-2.09,4.44-4.17,6.66-6.26.63-1.36,1.37-2.59,3.11-2.63.64-.41,1.28-.82,1.93-1.23,3.29.32,3.78.93,4.7,5.83-.05.46-.19.89-.4,1.3-1.24,1.29-2.77,2.26-3.94,3.64-4.81,4.89-9.19,10.16-13.68,15.34-18.93,22.46-33.22,47.47-41.82,75.65-1.36,4.46-2.52,8.93-2.94,13.58-.37,1.37-.75,2.74-1,4.15-.08.46-.2.91-.34,1.36-1.03,5.29-1.37,10.73-3.03,15.97,1.35-3.69,3.08-7.14,5.28-10.36,16.66-23.02,38.63-39.71,63.37-53.08,2.09-1.34,4.31-2.43,6.54-3.52.4-.21.82-.36,1.25-.48.68-.13,1.34-.09,1.91.36Z"/>
        <path class="cls-1" d="m370.12,161.18c.09-22.1.04-44.19.08-66.29,0-2.9-.11-5.64-2.73-7.59-4.77-3.55-9.46-7.21-14.26-10.72-3.43-2.51-6.8-2.73-10.43.05-6.8,5.21-13.81,10.14-20.74,15.19-4.86,2.15-5.07,2.7-2.75,7.06,1.92,1.8,3.95,3.5,5.74,5.43,2.21,2.38,3.99,2.39,6.42.07,5.62-5.36,11.47-10.49,17.33-15.6,1.2-1.04,1.99-3.68,4.2-2.32,1.89,1.16,3.49,2.73,3.3,5.57-.29,4.46-.28,8.96,0,13.42.23,3.62-.7,4.99-4.65,4.61-4.42-.42-8.93.03-13.39.14-2.39.06-3.89,1.21-4.27,3.65-1.44.63-2.29,1.73-2.64,3.25-2.06,2.76-4.07,5.55-6.18,8.27-4.66,6-6.93,12.34-2.95,19.63.86,2.61,1.65,5.27,4.17,6.88,1,1.23,2.01,2.45,3.01,3.68,1.42,3.72,3.71,6.77,6.97,9.07,1.83,2.02,3.33,2.34,5.34-.14,4.04-5.01,8.28-9.92,14.49-12.45,1.14.67.57,1.95,1.01,2.88.06.66.11,1.32.17,1.99.94,1.88,2.69,3.09,3.89,4.76.3.16.6.31.9.47,1.29-.09,1.61.93,2.07,1.79,1.54,1.09,2.93,3.39,4.87,2.59,2.23-.91,1.02-3.52,1.03-5.33Zm-13.67-41.96v24.56c0,.64-.23,1.25-.65,1.66-.44.95-1.26,1.67-1.96,2.44-.4.44-.83.87-1.35,1.18-.47.28-.98.45-1.48.67-.56.25-1.05.61-1.58.9-.55.3-1.12.57-1.7.8-1.04.41-1.92.96-3.08.68-.08-.02-.14-.06-.2-.1-.07-.02-.14-.03-.21-.06-1.19-.57-1.98-1.55-2.71-2.61-.72-1.05-1.52-2.01-2.08-3.16-.18-.38-.35-.77-.53-1.15-.31-.51-.58-1.05-.78-1.61-.18-.33-.36-.67-.51-1.02-.38-.84-.92-2.04-.73-2.98,0,0,0,0,0-.01-.01-.05-.03-.1-.04-.15-.12-.88-.11-1.79-.13-2.68-.03-1.81.13-3.65.82-5.34.02-.06.06-.11.09-.16.67-2.05,1.67-3.97,2.64-5.88.91-1.79,2.05-3.45,3.4-4.94,1.29-1.43,2.74-2.69,4.59-3.31,1.8-.6,3.71-.54,5.56-.27,0,0,0,0,0,0,.38.03.75.1,1.11.23.1.03.19.06.28.11.02,0,.04.01.06.02,0,0,0,0,0,0,.47.22.86.61,1.03,1.08,0,0,.01.01.01.02,0,.01,0,.03.01.04,0,.03.02.06.02.09.1.31.11.64.05.96Z"/>
        <path class="cls-1" d="m260.42,94.98l4.8-5.28c1.81-2.33,4.16-3.88,6.93-4.83,4.97-2.88,9.84-5.94,14.92-8.6,6.66-3.48,10.99-2.61,16.32,2.8,3.24,3.29,6.47,6.59,9.71,9.88.91,2.03-.31,3.07-1.84,3.96-1.88,2.64-3.75,5.28-5.86,8.24-4.77-5.14-9.55-10.12-14.12-15.28-2.29-2.59-4.25-3.54-7.21-.89-2.8,2.5-5.98,4.59-8.99,6.86-1.71.93-1.92,2.44-1.87,4.23,1.03,38.03.34,76.06.46,114.09,0,.32-.19.63-.34.93-1.31,4.49-5.68,7.44-9.98,6.84-3.58-.5-3.23-3.16-3.23-5.65,0-22.92,0-45.84,0-68.76,0-4.98-.18-9.97.08-14.94.14-2.81-1.15-2.8-3.23-2.68-1.18.07-3.25,2.9-3.59-.66-.2-2.1-.16-4.5,3.14-4.43.57.01,1.16-.55,1.74-.85,1.92-1.21,1.33-3.11,1.45-4.89.46-6.69-.76-13.44.71-20.09Z"/>
        <path class="cls-12" d="m200.27,121.87c-2.71.89-1.86,3.16-1.87,5.01-.03,27.08.01,54.17-.04,81.25-.01,7.94-5.61,11.62-12.94,8.69-1.28-1.46-.6-3.21-.6-4.81-.04-26.99-.07-53.98.02-80.96.01-3.54-.65-5.54-4.68-4.2-3.06-.05-1.52-2.36-1.65-3.66-.17-1.63,1.3-2.41,2.62-2.41,3.62,0,3.89-2.21,3.85-4.98-.09-5.49.13-10.99-.13-16.47-.17-3.55,1.22-6.15,3.84-8.17,7.21-5.54,14.76-10.58,22.85-14.75,7.03-3.62,10.39-3.04,15.99,2.38.95.93,1.88,1.88,2.81,2.83,8.02,8.18,7.95,8.14,1.44,17.57-1.42,2.05-2.09,1.79-3.56.16-4.34-4.81-8.93-9.4-13.22-14.25-1.75-1.98-2.92-2.12-5.31-.75-8.25,4.74-13.54,10.69-11.45,21.08.61,3.02-.03,6.29-.09,9.44-.94.9-1.71.41-2.4-.06,1.36,2.26,4.61,3.59,4.53,7.03Z"/>
        <path class="cls-1" d="m405.17,90.65c-3.48.83-3.82,3.37-3.8,6.42.08,16.98.04,33.96.04,50.95,0,10.32-2.96,14.59-13.07,18.82-1.18-1.67-.57-3.56-.58-5.33-.05-25.14-.02-50.27-.05-75.41,0-1.81.39-3.66-.4-5.42-.09-.66-.57-.75-1.11-.72-1.42.02-2.8.25-4.08.92-.89.32-1.76.75-2.68.94-.74.16-1.78.42-2.1-.57-.15-.47.28-1.23.62-1.73,2.84-4.09,15.52-7.91,20.4-6.28,2.18.73,3.2,2.01,3.07,4.38-.14,2.64.07,5.3-.09,7.94-.16,2.7,1.37,1.34,2.45,1.17,3.48.27,1.68,2.36,1.36,3.94Z"/>
        <path class="cls-12" d="m434.24,76.75c3.93.49,5.18,2.47,5.13,6.61-.26,22.55-.27,45.11-.06,67.66.04,4.08-.76,7.08-4.42,9-2.5,1.31-3.68,4.33-6.61,5.07-1.53-1.01-2.63-2.02-2.62-4.26.11-23.13.06-46.27.09-69.4,0-.92-.29-2.07,1.95-2.67,0,22.36,0,44.5.07,66.64.1.66.7-.33.11-.03-.13.06-.2-.06-.2-.38.12-20.64.21-41.28-.11-61.91-.07-4.34-.91-8.99-3.44-12.93-1.61.6-3.23,1.2-4.84,1.8-1.46,0-2.73.27-3.06,2h.01c-3.06-.04-2.6-1.9-2-3.84.64-.43,1.29-.86,1.93-1.3,1.64-.42,2.98-1.29,4.06-2.59,2.33-2.29,5-2.45,7.88-1.25,1.88,1.16,4.67-.79,6.13,1.8Z"/>
        <path class="cls-8" d="m162.39,78.96c-2.38-1.5-5.29-2.11-7.23-4.33,8.36-5.83,17.6-10.25,25.56-16.78,9.85-8.09,18.08-16.96,19.73-30.28.07-.55.75-1.03,1.38-1.85,2.45,4.34.58,8.33-.43,12.1-3.54,13.3-12.84,22.43-23.08,30.78-2.3,1.87-4.68,3.65-7.02,5.47-1.35,3.15-4.59,3.48-7.17,4.79-.58.03-1.16.07-1.75.1Z"/>
        <path class="cls-7" d="m273.34,211.09c-.03-25.23-.05-50.47-.1-75.7,0-4.81-.15-9.54-1.34-14.33-.56-2.26,1.02-5.23,1.26-8.01.4-4.61-.91-9.18.04-13.77.2-.98-.31-1.86-.94-2.72-1.48-2.01-.15-4.15,2.83-4.71-1.85,7.43-1.15,15.03-.63,22.46.28,4.05,3.82-.2,5.79.52,1.06-2.14,3.12-2.26,5.1-2.48,7.34-.81,14.5-2.74,21.85-3.45,1.31.35,3.76-.83,3.74.98-.03,2.39-1.54,4.56-4.42,5.21-9.4,2.12-18.73,4.57-28.18,6.39-3.4.65-4.21,1.92-4.19,5.13.11,26.27.09,52.55.03,78.82,0,1.89.79,3.98-.83,5.67Z"/>
        <path class="cls-11" d="m82.26,40.76c-1.01-2.14-1.08-4.92-3.94-5.82,3.66-3.05,7.32-6.1,10.98-9.15,6.14-5.92,12.11-12.09,20.95-13.96,1.31,1.81,3.25,2.11,5.28,2.2-.52,3.4-3.61,4.57-5.85,6.23-4.62,3.43-9.19,6.93-13.74,10.45-3.26,2.72-6.67,5.25-9.65,8.31-1.01,1.04-1.98,2.82-4.03,1.73Z"/>
        <path class="cls-7" d="m200.27,121.87c-2.18-2.62-4.36-5.23-7.02-8.41,2.01.59,3.45,1.01,4.89,1.44,1.32,1.79,2.76,1.33,4.24.23,1-1.9,2.87-.47,4.21-1.09.56-.05,1.13-.09,1.69-.14.6-.83,1.59-.56,2.39-.83.89.24,1.79.5,2.61-.2,1.23-1.43,2.93-.33,4.33-.82,4.82-.99,9.64-1.98,14.47-2.96,1.11-.22,2.54-.75,3.19.37.57.98-.07,2.22-.82,3.21-.81,1.08-1.57,2.1-3.02,2.41-10.39,2.24-20.77,4.52-31.15,6.79Z"/>
        <path class="cls-6" d="m424.13,80.14c1.28-1.39,1.86.02,2.02.75.66,3.07,1.9,6.31,1.95,9.15.38,22.62.16,45.26.11,67.89,0,.63-.15,1.26-.85,1.87v-69.92c-1.72,1.18-1.06,2.48-1.07,3.53-.04,21.97.12,43.94-.24,65.9-.04,2.72,3.31,3.23,2.22,5.76-1.03,1.08-2.18,1.94-2.71-.28-.3-1.26-.08-2.64-.08-3.97,0-24.71.02-49.41,0-74.12,0-2.27.41-4.67-1.36-6.59Z"/>
        <path class="cls-3" d="m130.29,0c-1.08,3.56-3.79,3.98-7.02,3.97-34.05-.06-68.1-.05-102.14-.01-1.78,0-3.71-.57-5.32.61-1.01.74-1.94,1.58-2.87.13-.99-1.54,1.07-1.76,1.38-2.77.33,0,.66-.01.99-.02,1.37.93,2.91.52,4.37.52,34.47.02,68.94.03,103.41-.02,1.35,0,3.01.82,4.08-.82.85-.9,1.76-1.67,3.11-1.58Z"/>
        <path class="cls-8" d="m.34,182.89c3.65-1.28,2.91,1.57,2.94,3.32.1,5.98-.21,11.98.12,17.94.28,4.99.54,9.91-.45,14.84,1.32.54,1.85-1.05,2.95-1.11.82,3.27-3.76,3.29-3.63,6.12-2.79-13.6-2.43-27.36-1.94-41.12Z"/>
        <path class="cls-1" d="m127.18,1.59c-1,2.01-2.87,1.32-4.42,1.32-34.43.04-68.86.03-103.28.01-1.44,0-3.04.42-4.16-1.01,11.48-.08,22.96-.21,34.44-.24,25.81-.06,51.62-.06,77.43-.09Z"/>
        <path class="cls-5" d="m151.28,284.87c3.72-7.7,7.35-15.42,9.11-23.87.2-.95.51-2.15,1.68-1.91,1.13.23,1.19,1.28.89,2.41-2.33,8.66-3.67,17.65-8.67,25.4-1.45-.01-2.55-.56-3.02-2.03Z"/>
        <path class="cls-3" d="m163.39,215.15c-1.18-2.33-.35-4.74-.08-7.58-3.1.6-6.36,1.99-7.94-1.97,2.84,1.39,5.32-.34,7.43-1.51,3.68-2.03,6.5-1,9.68,1.23-3.17,3.3-5.4,7.22-9.1,9.83Z"/>
        <path class="cls-6" d="m151.28,284.87c1.01.68,2.01,1.35,3.02,2.03-2.3,5.44-5.51,10.23-9.9,14.2-1.11-1.11-2.22-2.23-3.33-3.34,3.4-4.3,6.81-8.59,10.21-12.89Z"/>
        <path class="cls-2" d="m414.25,80.09c.92,1.15-.17,3.34,2,3.84-3.69,2.24-7.38,4.48-11.07,6.72-1.21-1.05.83-3.23-1.36-3.94,3.48-2.21,6.96-4.41,10.43-6.62Z"/>
        <path class="cls-3" d="m82.21,315.13c.98-2.77,3.02-1.82,4.86-1.34,1.21.31,2.39,1.64,3.63.59,1.34-1.14,2.47-1.04,3.25.27.97,1.63-.97,2.11-1.62,3.1-3.36-.91-7.07-.47-10.11-2.62Z"/>
        <path class="cls-6" d="m154.45,84.34c-.34-1.46.87-2.99-.16-4.42h0c2.23-1.16,4.14-1.68,3.99,1.97-1.28.82-2.55,1.63-3.83,2.45Z"/>
        <path class="cls-5" d="m357.36,156.89c1.67,1.28,3.56,2.39,3.89,4.76-1.86-1.13-3.77-2.22-3.89-4.76Z"/>
        <path class="cls-2" d="m420.23,76.21c-.51,2.18-1.62,3.42-4.06,2.59,1-1.42,2.62-1.86,4.06-2.59Z"/>
        <path class="cls-13" d="m97.27,114.66c-.06-.25-.11-.5-.16-.75.5-2.32,1.84-1.76,3.25-.93-.79,1-1.9,1.42-3.09,1.68Z"/>
        <path class="cls-5" d="m356.18,152.03c.34-.27.67-.55,1.01-.82.42,1.23.82,2.46,0,3.69-.34-.96-.67-1.92-1.01-2.88Z"/>
        <path class="cls-13" d="m100.34,112.99c.6-1.8,2-2.19,3.68-2.1-.78,1.48-2.21,1.82-3.68,2.1Z"/>
        <path class="cls-2" d="m416.23,83.93c-.47-2.94,1.38-2.34,3.06-2-.71,1.14-1.89,1.55-3.06,2Z"/>
        <path class="cls-5" d="m362.15,162.13c.51-1.15,1.28-.6,1.94-.24,1.04.57.3,1.34.13,2.03-.69-.6-1.38-1.2-2.07-1.79Z"/>
        <path class="cls-6" d="m131.43,224.56v-119.32c.17,0,.33,0,.5,0v119.52c-.17-.07-.33-.14-.5-.2Z"/>
        <path class="cls-6" d="m130.21,15.92c-.42-.99-.44-1.99-.03-2.99,1.81,1.33,2.12,3.24,2.12,5.31-.01,19.97,0,39.93-.02,59.9,0,.58-.2,1.15-.98,1.7v-27.83c0-10.32.03-20.63-.03-30.95-.01-1.74.69-3.71-1.05-5.13Z"/>
        <path class="cls-10" d="m130.11,11.27c-.28-.01-.55-.02-.83-.03-3.29-.95-6.6-.64-9.9-.08,3.6-2.49,7.18-1.89,10.73.11Z"/>
        <path class="cls-9" d="m110.86,100.51c-.99.71-1.61,1.15-2.23,1.59-.27-.57-.77-1.14-.76-1.71,0-.73.64-1.17,1.41-.86.51.2.95.58,1.57.98Z"/>
        <path class="cls-10" d="m130.17,11.93c-.29-.21-.34-.47-.15-.78,2.35-.53,3.6.44,3.97,3.07-1.78-.15-1.97-2.75-3.82-2.29Z"/>
        <path class="cls-4" d="m124.29,94.92c-1.08,1.36-2.89,1.31-3.11,0-.43-2.58.93-.85,1.73-.39.4.23.92.27,1.39.4h0Z"/>
        <path class="cls-6" d="m154.29,79.92c-1.26-.2-2.62-.27-2.53-2.17,1.69-.18,2.37.69,2.53,2.17h0Z"/>
        <path class="cls-4" d="m124.29,94.92c.05-1.55.86-1.62,1.92-.91.28.19.32.73.48,1.11-.8-.07-1.6-.14-2.4-.2h0Z"/>
        <path class="cls-9" d="m2.6,173.08c.99,1.44.77,3.01.49,4.83-1.52-1.62-.23-3.27-.49-4.83Z"/>
        <path class="cls-11" d="m186.61,207.57v-79.99c.21,0,.41,0,.62,0v80.14c-.21-.05-.41-.1-.62-.15Z"/>
        <path class="cls-7" d="m396.57,74.68c-.48,1.8,2.04,4.27-1.08,5.47-.78.3-1.19-.25-1.52-.85-1.43-2.64,1.05-3.34,2.6-4.62Z"/>
      </g>
      <path class="cls-1" d="m351.41,296.87c-.26,6.23-4.14,11.15-10.21,12.88-13.2,3.76-30.01-4.79-29.77-21.91.4-29.34.18-58.69.25-88.03.02-8.79,5.41-15.38,13.36-17.07,2.91-.62,3.24.31,3.24,2.83-.06,32.54-.04,65.07-.05,97.61,0,3.58.54,6.98,2.77,9.93,4.58,6.07,10.84,5.76,17.32,4.56.97-.18,1.91-.49,3.1-.79Z"/>
      <path class="cls-1" d="m394.82,306.77c.06-15.49.03-30.97.05-46.46,0-2.04-.07-3.95-1.91-5.32-3.34-2.49-6.63-5.05-9.99-7.51-2.4-1.76-4.77-1.92-7.31.03-4.77,3.65-9.68,7.11-14.54,10.65-3.41,1.51-3.56,1.89-1.92,4.95,1.35,1.26,2.77,2.45,4.02,3.8,1.55,1.67,2.79,1.67,4.5.05,3.94-3.76,8.04-7.35,12.15-10.93.84-.73,1.39-2.58,2.94-1.63,1.32.81,2.45,1.91,2.32,3.91-.2,3.12-.19,6.28,0,9.4.16,2.54-.49,3.49-3.26,3.23-3.1-.29-6.26.02-9.39.1-1.67.04-2.72.85-2.99,2.56-1.01.44-1.61,1.22-1.85,2.28-1.44,1.93-2.85,3.89-4.33,5.79-3.27,4.21-4.86,8.65-2.07,13.76.6,1.83,1.16,3.69,2.92,4.82.7.86,1.41,1.72,2.11,2.58.99,2.61,2.6,4.74,4.88,6.36,1.29,1.42,2.33,1.64,3.74-.1,2.83-3.51,5.8-6.95,10.16-8.73.8.47.4,1.37.71,2.02.04.46.08.93.12,1.39.66,1.32,1.89,2.17,2.73,3.34.21.11.42.22.63.33.9-.06,1.13.65,1.45,1.26,1.08.77,2.05,2.38,3.42,1.82,1.56-.64.72-2.47.72-3.74Zm-9.58-29.41v17.21c0,.45-.16.87-.46,1.16-.31.67-.88,1.17-1.37,1.71-.28.31-.58.61-.95.83-.33.2-.69.32-1.03.47-.39.17-.74.43-1.11.63-.38.21-.78.4-1.19.56-.73.29-1.35.67-2.16.47-.06-.01-.1-.04-.14-.07-.05-.01-.1-.02-.15-.04-.83-.4-1.39-1.09-1.9-1.83-.51-.74-1.07-1.41-1.46-2.22-.13-.27-.25-.54-.37-.81-.22-.36-.4-.74-.55-1.13-.12-.23-.25-.47-.36-.71-.26-.59-.64-1.43-.51-2.09,0,0,0,0,0-.01,0-.04-.02-.07-.03-.1-.08-.61-.08-1.26-.09-1.88-.02-1.27.09-2.56.57-3.74.02-.04.04-.08.07-.11.47-1.44,1.17-2.78,1.85-4.12.64-1.25,1.44-2.42,2.38-3.47.91-1,1.92-1.89,3.22-2.32,1.26-.42,2.6-.38,3.9-.19,0,0,0,0,0,0,.27.02.53.07.78.16.07.02.13.05.2.07.01,0,.03,0,.04.02,0,0,0,0,0,0,.33.16.6.43.72.76,0,0,0,0,.01.02,0,.01,0,.02,0,.03,0,.02.01.04.02.06.07.22.08.45.03.67Z"/>
      <path class="cls-1" d="m444.94,296.87c-.26,6.23-4.14,11.15-10.21,12.88-13.2,3.76-30.01-4.79-29.77-21.91.4-29.34.18-58.69.25-88.03.02-8.79,5.41-15.38,13.36-17.07,2.91-.62,3.24.31,3.24,2.83-.06,32.54-.04,65.07-.05,97.61,0,3.58.54,6.98,2.77,9.93,4.58,6.07,10.84,5.76,17.32,4.56.97-.18,1.91-.49,3.1-.79Z"/>
    </g>
  </g>
</svg>